<svg xmlns="http://www.w3.org/2000/svg" width="56" height="56" viewBox="0 0 56 56">
  <g fill="none" fill-rule="evenodd">
    <rect width="56" height="56"/>
    <path fill="#FFF" d="M28,2 C42.3594035,2 54,13.6405965 54,28 C54,42.3594035 42.3594035,54 28,54 C13.6405965,54 2,42.3594035 2,28 C2,13.6405965 13.6405965,2 28,2 Z M28,41 C26.0243187,41 24.0978951,41.1033469 22.2689415,41.2987627 C22.6377732,42.603728 23.0615842,43.81753 23.5347774,44.9216475 C25.0902098,48.5509897 26.8479311,50.2857143 28,50.2857143 C29.1520689,50.2857143 30.9097902,48.5509897 32.4652226,44.9216475 C32.9384158,43.81753 33.3622268,42.603728 33.7312598,41.300639 C31.9021049,41.1033469 29.9756813,41 28,41 Z M18.5667464,41.8454268 L18.2148755,41.9137152 C16.4932366,42.2596688 14.9185839,42.6964623 13.5457931,43.2112588 C13.0759321,43.3874567 12.6388946,43.5697189 12.2370392,43.75557 C14.8264255,46.3441555 18.0479939,48.2993121 21.6506637,49.3681871 C21.0559991,48.4051938 20.5034155,47.3095678 20.0007494,46.1003268 L19.7662584,45.5187186 C19.6124641,45.1254025 19.4637765,44.7210272 19.3204404,44.3061636 L19.1094804,43.6760733 C19.0749995,43.569771 19.0408607,43.462831 19.0070679,43.3552623 L18.8084928,42.7023764 C18.7255725,42.4206795 18.6449689,42.1349798 18.5667464,41.8454268 Z M37.4341746,41.8448428 L37.3191874,42.2589472 C37.277262,42.4078289 37.2346989,42.5556456 37.1915072,42.7023764 L36.9929321,43.3552623 C36.9591393,43.462831 36.9250005,43.569771 36.8905196,43.6760733 L36.6795596,44.3061636 C36.5362235,44.7210272 36.3875359,45.1254025 36.2337416,45.5187186 L35.9992506,46.1003268 C35.4965845,47.3095678 34.9440009,48.4051938 34.3492555,49.3691085 C37.9520061,48.2993121 41.1735745,46.3441555 43.7613545,43.7554043 C43.3609476,43.5696532 42.9239831,43.3874249 42.4542069,43.2112588 C40.988667,42.6616814 39.2930674,42.2010033 37.4341746,41.8448428 Z M16.886,29.857 L5.79062193,29.8578257 C6.12615083,33.9234098 7.55297494,37.6795366 9.77748966,40.8326014 C10.4400427,40.4783466 11.1758459,40.145179 11.9750487,39.8351386 L12.5127505,39.6335004 C13.0595274,39.4352968 13.633278,39.2474916 14.2317363,39.0709344 L14.8383466,38.8981581 L15.4609252,38.7330692 L15.7780453,38.6534666 L15.7780453,38.6534666 L16.4236322,38.500263 C16.6413075,38.4505446 16.8614343,38.4021861 17.0839287,38.355219 L17.751,38.219 L17.7328038,38.1203733 C17.6876951,37.8715256 17.6441995,37.6206981 17.6023477,37.3679623 L17.4817541,36.6041013 C17.4432204,36.3476203 17.406361,36.0893022 17.3712066,35.8292186 L17.2708887,35.0437425 C17.2233177,34.6484274 17.1796517,34.2493003 17.1399939,33.8466022 L17.066053,33.0365159 C17.0546304,32.9007318 17.0436608,32.7645687 17.033148,32.6280356 L16.9755839,31.8044679 L16.9291671,30.9724481 L16.8940811,30.1324042 L16.886,29.857 Z M50.2093781,29.8578257 L39.1148413,29.8580735 C39.11207,29.9496488 39.1090956,30.0410932 39.1059189,30.1324042 L39.0708329,30.9724481 L39.0244161,31.8044679 L38.966852,32.6280356 C38.9563392,32.7645687 38.9453696,32.9007318 38.933947,33.0365159 L38.8600061,33.8466022 C38.8203483,34.2493003 38.7766823,34.6484274 38.7291113,35.0437425 L38.6287934,35.8292186 C38.593639,36.0893022 38.5567796,36.3476203 38.5182459,36.6041013 L38.3976523,37.3679623 C38.3767264,37.4943302 38.3553896,37.620221 38.3336456,37.7456259 L38.247,38.219 L38.9160713,38.355219 C39.1385657,38.4021861 39.3586925,38.4505446 39.5763678,38.500263 L40.2219547,38.6534666 L40.5390748,38.7330692 L40.5390748,38.7330692 L41.1616534,38.8981581 L41.7682637,39.0709344 C42.366722,39.2474916 42.9404726,39.4352968 43.4872495,39.6335004 L44.0249513,39.8351386 C44.8241075,40.1451609 45.5598716,40.4783078 46.2244113,40.8316422 C48.4473261,37.6787441 49.8738846,33.9229809 50.2093781,29.8578257 Z M35.3986312,29.8579474 L20.6013688,29.8579474 C20.6898472,32.5947467 20.9724997,35.2269013 21.4236394,37.6573083 L21.6996255,37.6243626 L22.4541935,37.5465339 C22.580838,37.534371 22.707917,37.5226148 22.8354201,37.5112695 L23.6054436,37.4481585 L24.3851414,37.3950952 L25.1740099,37.3522685 C25.570653,37.3334458 25.9705462,37.3185326 26.3734065,37.3076351 L27.182999,37.291226 C27.3185625,37.289394 27.4544346,37.2880161 27.5906049,37.2870961 L28,37.2857143 C28.2735124,37.2857143 28.5458741,37.287562 28.817001,37.291226 L29.6265935,37.3076351 C30.0294538,37.3185326 30.429347,37.3334458 30.8259901,37.3522685 L31.6148586,37.3950952 L32.3945564,37.4481585 L33.1645799,37.5112695 C33.292083,37.5226148 33.419162,37.534371 33.5458065,37.5465339 L34.3003745,37.6243626 L34.5763606,37.6573083 C35.0275003,35.2269013 35.3101528,32.5947467 35.3986312,29.8579474 Z M9.94411334,14.9354349 L9.81346219,15.116561 C7.56835901,18.2800569 6.12795596,22.0547176 5.79062193,26.1421743 L16.8851587,26.1419265 C16.88793,26.0503512 16.8909044,25.9589068 16.8940811,25.8675958 L16.9291671,25.0275519 L16.9755839,24.1955321 L17.033148,23.3719644 C17.0436608,23.2354313 17.0546304,23.0992682 17.066053,22.9634841 L17.1399939,22.1533978 C17.1796517,21.7506997 17.2233177,21.3515726 17.2708887,20.9562575 L17.3712066,20.1707814 C17.406361,19.9106978 17.4432204,19.6523797 17.4817541,19.3958987 L17.6023477,18.6320377 C17.6232736,18.5056698 17.6446104,18.379779 17.6663544,18.2543741 L17.801673,17.5078487 L17.808,17.469 L17.7584312,17.4601714 L17.0839287,17.3234758 C16.8614343,17.2765087 16.6413075,17.2281502 16.4236322,17.1784317 L16.4236322,17.1784317 L15.7780453,17.0252282 L15.7780453,17.0252282 L15.4609252,16.9456256 L14.8383466,16.7805367 L14.2317363,16.6077603 C13.633278,16.4312031 13.0595274,16.2433979 12.5127505,16.0451944 L12.5127505,16.0451944 L11.9750487,15.8435562 C11.2428473,15.5595081 10.5638609,15.2560481 9.94411334,14.9354349 Z M34.5167494,18.0278004 L34.3003745,18.0543322 L33.5458065,18.1321608 C33.419162,18.1443238 33.292083,18.1560799 33.1645799,18.1674253 L33.1645799,18.1674253 L32.3945564,18.2305363 L31.6148586,18.2835996 L30.8259901,18.3264263 C30.429347,18.345249 30.0294538,18.3601622 29.6265935,18.3710597 L29.6265935,18.3710597 L28.817001,18.3874688 C28.5458741,18.3911328 28.2735124,18.3929805 28,18.3929805 L28,18.3929805 L27.5906049,18.3915986 L27.5906049,18.3915986 L27.182999,18.3874688 L26.3734065,18.3710597 C25.9705462,18.3601622 25.570653,18.345249 25.1740099,18.3264263 L25.1740099,18.3264263 L24.3851414,18.2835996 L23.6054436,18.2305363 L22.8354201,18.1674253 C22.707917,18.1560799 22.580838,18.1443238 22.4541935,18.1321608 L22.4541935,18.1321608 L21.6996255,18.0543322 L21.4832506,18.0278004 C20.9973675,20.5451151 20.6936822,23.2866274 20.6013688,26.1420526 L35.3986312,26.1420526 C35.3063178,23.2866274 35.0026325,20.5451151 34.5167494,18.0278004 Z M46.0563573,14.9350565 L45.6903481,15.1191996 C45.1719764,15.3725005 44.6157891,15.6143483 44.0249513,15.8435562 L44.0249513,15.8435562 L43.4872495,16.0451944 C42.9404726,16.2433979 42.366722,16.4312031 41.7682637,16.6077603 L41.7682637,16.6077603 L41.1616534,16.7805367 L40.5390748,16.9456256 L40.5390748,16.9456256 L40.2219547,17.0252282 L39.5763678,17.1784317 C39.3586925,17.2281502 39.1385657,17.2765087 38.9160713,17.3234758 L38.9160713,17.3234758 L38.2415688,17.4601714 L38.19,17.47 L38.2671962,17.8796267 C38.3123049,18.1284744 38.3558005,18.3793019 38.3976523,18.6320377 L38.5182459,19.3958987 C38.5567796,19.6523797 38.593639,19.9106978 38.6287934,20.1707814 L38.7291113,20.9562575 C38.7766823,21.3515726 38.8203483,21.7506997 38.8600061,22.1533978 L38.933947,22.9634841 C38.9453696,23.0992682 38.9563392,23.2354313 38.966852,23.3719644 L39.0244161,24.1955321 L39.0708329,25.0275519 L39.1059189,25.8675958 L39.113,26.142 L50.2093781,26.1421743 C49.8655685,21.9762535 48.3759337,18.135253 46.0563573,14.9350565 Z M28,5.71428571 C26.8479311,5.71428571 25.0902098,7.44901034 23.5347774,11.0783525 C23.0994009,12.0942311 22.7058289,13.2029632 22.3582642,14.3886613 C24.1603904,14.5786727 26.0563587,14.6786948 28,14.6786948 C29.9436413,14.6786948 31.8396096,14.5786727 33.6420003,14.3893666 C33.2941711,13.2029632 32.9005991,12.0942311 32.4652226,11.0783525 C30.9569245,7.55899041 29.2584118,5.82116032 28.1063795,5.71906902 L28,5.71428571 L28,5.71428571 Z M21.6507445,6.63089152 L21.6247617,6.63951495 C18.135108,7.67950155 15.0039525,9.55131223 12.46129,12.0249524 C12.7998936,12.1754578 13.161887,12.3234711 13.5457931,12.4674359 C15.0334662,13.0253134 16.7582006,13.491586 18.6501586,13.8499172 C18.7022986,13.663344 18.7549121,13.4796482 18.8084928,13.2976236 L19.0070679,12.6447377 C19.0408607,12.537169 19.0749995,12.430229 19.1094804,12.3239267 L19.3204404,11.6938364 C19.4637765,11.2789728 19.6124641,10.8745975 19.7662584,10.4812814 L20.0007494,9.89967315 C20.5034155,8.69043218 21.0559991,7.59480617 21.6507445,6.63089152 Z M34.3493363,6.63181287 L34.461226,6.81474762 C35.0134704,7.73339032 35.5282717,8.76666059 35.9992506,9.89967315 L36.2337416,10.4812814 C36.3875359,10.8745975 36.5362235,11.2789728 36.6795596,11.6938364 L36.8905196,12.3239267 C36.9250005,12.430229 36.9591393,12.537169 36.9929321,12.6447377 L37.1915072,13.2976236 C37.2450879,13.4796482 37.2977014,13.663344 37.3493301,13.8486709 C39.2417994,13.491586 40.9665338,13.0253134 42.4542069,12.4674359 C42.8382201,12.323431 43.2003084,12.1753752 43.5391842,12.0246201 C40.9889324,9.54470063 37.8489382,7.67010872 34.3493363,6.63181287 Z"/>
  </g>
</svg>
