<?xml version="1.0" encoding="UTF-8"?>
<svg width="56px" height="56px" viewBox="0 0 56 56" version="1.1" xmlns="http://www.w3.org/2000/svg" xmlns:xlink="http://www.w3.org/1999/xlink">
    <title>symbol-Kusama</title>
    <g id="页面-1" stroke="none" stroke-width="1" fill="none" fill-rule="evenodd">
        <g id="001备份-2" transform="translate(-306.000000, -118.000000)">
            <g id="symbol-Kusama" transform="translate(306.000000, 118.000000)">
                <g id="symbol-polkadot" stroke="#FFFFFF" stroke-width="4">
                    <circle id="椭圆形" cx="28" cy="28" r="26"></circle>
                </g>
                <g id="Kusama" transform="translate(0.000000, 14.000000)" fill="#FFFFFF" fill-rule="nonzero">
                    <path d="M45.2879256,1.65766366 C44.3881655,0.842056858 43.388432,0.230351757 42.1887519,0.0264500567 C40.6891517,-0.177451644 39.1895515,0.842056858 38.189818,1.55571281 C37.1900846,2.26936876 35.1906177,4.10448406 34.3908309,4.81814001 C33.5910441,5.53179596 31.5915772,5.93959937 28.2924568,7.97861637 C24.9933364,10.0176334 12.1967482,18.3776031 12.1967482,18.3776031 L15.4958686,18.3776031 L0.599840074,26.2278185 L2.09944026,26.2278185 L0,27.8590321 C1.19968015,28.1648847 2.3993603,27.960983 3.4990671,27.3492779 L3.4990671,27.8590321 C3.4990671,27.8590321 21.1943493,20.7224726 24.593443,22.5575879 L22.4940028,23.169293 C22.6939495,23.169293 25.9930699,23.3731947 25.9930699,23.3731947 C26.1930166,24.8005066 26.9928033,26.1258677 28.1924835,26.8395236 C30.1919504,28.1648847 30.2919237,28.9804915 30.2919237,28.9804915 C30.2919237,28.9804915 29.2921903,29.3882949 29.2921903,30 C31.1916838,29.3882949 33.1911508,29.3882949 34.990671,30 C34.990671,30 34.8906976,29.3882949 33.4910708,28.9804915 C32.091444,28.3687864 30.8917638,27.4512287 29.9920037,26.1258677 C29.1922169,25.0044083 28.8922969,23.5770964 29.3921636,22.2517354 C29.8920303,20.9263743 31.5915772,20.2127184 35.0906443,18.3776031 C39.1895515,16.2366352 40.189285,14.6054216 40.6891517,13.2800606 C41.1890184,11.9546995 42.1887519,9.50787912 42.5886452,8.28446892 C42.9885386,7.16300957 43.688352,6.24545192 44.5881122,5.42984511 C45.687819,4.81814001 46.8874991,4.30838576 47.9872059,3.90058236 C48.1871526,4.00253321 45.987739,2.16741791 45.2879256,1.65766366 Z" id="路径"></path>
                </g>
            </g>
        </g>
    </g>
</svg>