<svg xmlns="http://www.w3.org/2000/svg" width="24" height="24" viewBox="0 0 24 24">
  <g fill="none" fill-rule="evenodd">
    <rect width="24" height="24"/>
    <path fill="#6F7C7C" d="M18,3 C20.209139,3 22,4.790861 22,7 L22,17 C22,19.209139 20.209139,21 18,21 L8,21 L8,13.499 L3.5,13.5 C2.67157288,13.5 2,12.8284271 2,12 C2,11.1715729 2.67157288,10.5 3.5,10.5 L8,10.499 L8,3 L18,3 Z M15.1225984,7.00496783 C14.6164302,6.43254478 13.7483357,6.32829695 13.1177605,6.78688277 L13.1177605,6.78688277 L13.0049678,6.87740164 C12.4325448,7.38356983 12.3282969,8.25166434 12.7868828,8.88223953 L12.7868828,8.88223953 L13.962,10.499 L8,10.5 L8,13.5 L14.098,13.499 L12.8358862,15.0540407 L12.7451775,15.1779485 C12.3277861,15.8134025 12.451301,16.6743274 13.0540407,17.1641138 C13.696963,17.6865527 14.6416749,17.5888816 15.1641138,16.9459593 L15.1641138,16.9459593 L18.234353,13.16767 L18.3260696,13.0421077 C18.663868,12.5255982 18.6526016,11.8471992 18.2833564,11.3394712 L18.2833564,11.3394712 L15.2131172,7.11776047 Z"/>
  </g>
</svg>
