<svg xmlns="http://www.w3.org/2000/svg" width="24" height="24" viewBox="0 0 24 24">
  <g fill="none" fill-rule="evenodd">
    <rect width="24" height="24"/>
    <path fill="#FFFFFF" d="M22,3 L22,21 L14,21 C11.790861,21 10,19.209139 10,17 L9.99989416,13.499 L5.97089416,13.499 L7.23424879,15.0540407 L7.32495745,15.1779485 C7.74234891,15.8134025 7.61883393,16.6743274 7.01609426,17.1641138 C6.41335459,17.6539003 5.54537015,17.5986682 5.00875017,17.0600993 L4.90602114,16.9459593 L1.83578194,13.16767 L1.74406532,13.0421077 C1.43441679,12.5686406 1.41807966,11.9591414 1.70191997,11.4697664 L1.78677854,11.3394712 L4.85701774,7.11776047 L4.9475366,7.00496783 C5.42206929,6.46832122 6.21470126,6.34315674 6.83150457,6.70747053 L6.9523745,6.78688277 L7.06516714,6.87740164 C7.60181375,7.35193432 7.72697823,8.1445663 7.36266444,8.7613696 L7.28325219,8.88223953 L6.10689416,10.499 L9.99989416,10.499 L10,7 C10,4.790861 11.790861,3 14,3 L22,3 Z M18,10.5 L13,10.5 L13,13.5 L18,13.5 L18,10.5 Z"/>
  </g>
</svg>
