<svg xmlns="http://www.w3.org/2000/svg" width="24" height="24" viewBox="0 0 24 24">
  <g fill="none" fill-rule="evenodd">
    <rect width="24" height="24"/>
    <path fill="#6F7C7C" d="M12,2 C17.5228475,2 22,6.4771525 22,12 C22,17.5228475 17.5228475,22 12,22 C6.4771525,22 2,17.5228475 2,12 C2,6.4771525 6.4771525,2 12,2 Z M16.0016544,12.9998845 L7.00165442,12.9998845 L6.89041602,13.005761 C6.16405588,13.0833243 5.75083594,13.9128212 6.1641442,14.5463062 L6.1641442,14.5463062 L7.91546304,17.2305838 L7.9848219,17.324579 C8.30495739,17.7095412 8.86988967,17.801897 9.29939492,17.5216724 L9.29939492,17.5216724 L9.39339013,17.4523135 C9.77835226,17.1321781 9.8707081,16.5672458 9.59048349,16.1377405 L9.59048349,16.1377405 L8.84865442,15.0001622 L16.0016544,14.9998845 L16.1182755,14.9931568 C16.6156142,14.9353917 17.0016544,14.5127204 17.0016544,13.9998845 C17.0016544,13.4475998 16.5539392,12.9998845 16.0016544,12.9998845 L16.0016544,12.9998845 Z M16.0168325,6.91491693 C15.696697,6.52995481 15.1317648,6.43759896 14.7022595,6.71782357 L14.7022595,6.71782357 L14.6082643,6.78718242 C14.2233022,7.10731792 14.1309463,7.67225019 14.4111709,8.10175545 L14.4111709,8.10175545 L15.153,9.239 L8,9.23961145 L7.88337887,9.24633918 C7.38604019,9.30410428 7,9.72677561 7,10.2396114 C7,10.7918962 7.44771525,11.2396114 8,11.2396114 L8,11.2396114 L17,11.2396114 L17.1112384,11.233735 C17.8375985,11.1561717 18.2508185,10.3266747 17.8375102,9.69318979 L17.8375102,9.69318979 L16.0861914,7.00891214 Z"/>
  </g>
</svg>
