<svg xmlns="http://www.w3.org/2000/svg" width="148" height="36" viewBox="0 0 148 36">
  <g fill="none" fill-rule="evenodd">
    <polygon fill="#CE2D66" points="0 36 24 36 24 12 0 12"/>
    <path fill="#57B5D9" d="M12,24 L36,24 L36,12 C36,5.372583 30.627417,0 24,0 L12,0 L12,24 Z"/>
    <polygon fill="#FFF" points="12 24 24 24 24 12 12 12"/>
    <polygon fill="#444C5E" points="0 12 12 12 12 0 0 0"/>
    <path fill="#444C5E" d="M24,36 L24,36 C30.627417,36 36,30.627417 36,24 L24,24 L24,36 Z"/>
    <polygon fill="#EEBF41" points="14.994 20.994 20.994 21.006 21.006 15.006 15.006 14.994"/>
    <path fill="#444C5E" fill-rule="nonzero" d="M128.358,13.8 C129.484137,13.789751 130.602616,13.9859932 131.658,14.379 C132.635037,14.7415802 133.533317,15.2884922 134.304,15.99 C135.05175,16.6769337 135.64575,17.5142583 136.047,18.447 C136.472665,19.4430622 136.686199,20.5168649 136.674,21.6 C136.686961,22.6831443 136.470198,23.7567356 136.038,24.75 C135.631267,25.6797618 135.039204,26.5168153 134.298,27.21 C133.526995,27.9136157 132.621932,28.4544093 131.637,28.8 C130.558578,29.182958 129.421357,29.3738486 128.277,29.364 C127.15207,29.3755208 126.034251,29.1844753 124.977,28.8 C124.007389,28.4460767 123.120266,27.8978774 122.37,27.189 C121.634163,26.4818668 121.051154,25.6313478 120.657,24.69 C120.234747,23.6648788 120.025502,22.5645571 120.042,21.456 C120.029959,19.3924407 120.885604,17.4187947 122.4,16.017 C123.163277,15.3162424 124.053166,14.7674434 125.022,14.4 C126.086738,13.9932994 127.218277,13.7897852 128.358,13.8 Z M83.088,16.371 L83.079,15 L87.993,15 L87.993,28.854 L83.079,28.854 L83.079,27.315 C82.0651701,28.6154446 80.4877411,29.3488988 78.84,29.286 C77.8848643,29.2956234 76.9380518,29.1076908 76.059,28.734 C75.2231747,28.3716403 74.4698756,27.8429019 73.845,27.18 C73.2067937,26.5001316 72.7074543,25.7022075 72.375,24.831 C72.0178019,23.8954637 71.8387233,22.9013741 71.847,21.9 C71.8423373,20.9363816 72.0162735,19.9802413 72.36,19.08 C72.6857257,18.2122932 73.1745192,17.4149488 73.8,16.731 C74.4153208,16.0631182 75.1591916,15.5263884 75.987,15.153 C76.8697518,14.7577653 77.8278798,14.5591789 78.795,14.571 C80.4184159,14.5249182 81.9829042,15.1808882 83.088,16.371 Z M117.261,7.044 L117.261,28.854 L112.347,28.854 L112.347,27.315 C111.33317,28.6154446 109.755741,29.3488988 108.108,29.286 C107.151266,29.296504 106.203256,29.1032205 105.327,28.719 C104.4924,28.3490803 103.739778,27.8167378 103.113,27.153 C102.473842,26.4732972 101.973488,25.6753811 101.64,24.804 C100.949432,22.956 100.93986,20.9224192 101.613,19.068 C101.929666,18.204203 102.411652,17.4104047 103.032,16.731 C103.649998,16.0608593 104.398268,15.5239015 105.231,15.153 C106.119323,14.7586384 107.082135,14.5601415 108.054,14.571 C109.677416,14.5249182 111.241904,15.1808882 112.347,16.371 L112.347,7.044 L117.261,7.044 Z M54.729,8.496 C57.015,8.496 58.766,9.09 59.982,10.278 C61.198,11.466 61.804,13.14 61.8000197,15.3 C61.8000197,17.46 61.193,19.134 59.979,20.322 C58.765,21.51 57.014,22.104 54.726,22.104 L51.6,22.104 L51.6,28.854 L46.305,28.854 L46.305,8.496 L54.729,8.496 Z M96.768,10.845 L96.768,15 L99.549,15 L99.549,19.08 L96.768,19.08 L96.768,28.854 L91.881,28.854 L91.881,19.08 L90.261,19.08 L90.261,15 L91.881,15 L91.881,10.845 L96.768,10.845 Z M145.014,10.845 L145.014,15 L147.798,15 L147.798,19.08 L145.014,19.08 L145.014,28.854 L140.127,28.854 L140.127,19.08 L138.51,19.08 L138.51,15 L140.127,15 L140.127,10.845 L145.014,10.845 Z M69.039,7.044 L69.039,28.854 L64.152,28.854 L64.152,7.044 L69.039,7.044 Z M108.126,19.053 C107.750353,19.2073325 107.410348,19.4370653 107.127,19.728 C106.847182,20.0115885 106.616981,20.3401585 106.446,20.7 C106.276877,21.0770829 106.192887,21.4867888 106.2,21.9 C106.192031,22.7445747 106.515094,23.5586933 107.1,24.168 C107.383348,24.4589347 107.723353,24.6886675 108.099,24.843 C108.49755,25.0071899 108.924971,25.0898178 109.356,25.086 C109.777155,25.0880802 110.194428,25.0054418 110.583,24.843 C110.958647,24.6886675 111.298652,24.4589347 111.582,24.168 C111.863267,23.8766933 112.091677,23.5386471 112.257,23.169 C112.427252,22.7918641 112.515205,22.3827842 112.515016,21.969 C112.516384,21.5463932 112.428464,21.1282624 112.257,20.742 C112.094036,20.3665782 111.865462,20.0232085 111.582,19.728 C111.298652,19.4370653 110.958647,19.2073325 110.583,19.053 C109.79602,18.7291221 108.91298,18.7291221 108.126,19.053 Z M80.07,18.783 C79.638971,18.7791822 79.2115502,18.8618101 78.813,19.026 C78.4373529,19.1803325 78.0973483,19.4100653 77.814,19.701 C77.5366491,19.9878054 77.3130962,20.3221185 77.154,20.688 C76.9924022,21.0711926 76.9136795,21.4842313 76.923,21.9 C76.9150308,22.7445747 77.2380937,23.5586933 77.823,24.168 C78.1063483,24.4589347 78.4463529,24.6886675 78.822,24.843 C79.2205502,25.0071899 79.647971,25.0898178 80.079,25.086 C80.5010943,25.0877502 80.9192826,25.0051325 81.309,24.843 C81.6838546,24.6871925 82.0235789,24.457649 82.308,24.168 C82.5872914,23.8750973 82.8154588,23.5374096 82.983,23.169 C83.1508401,22.7911877 83.2377042,22.3824155 83.238007,21.969 C83.2389076,21.5467523 83.1520724,21.1289218 82.983,20.742 C82.8178568,20.3677687 82.5895225,20.0247598 82.308,19.728 C82.0234533,19.4276329 81.6804051,19.1887243 81.3,19.026 C80.9102826,18.8638675 80.4920943,18.7812498 80.07,18.783 Z M127.143,18.84 C126.763098,18.9877107 126.417863,19.2124199 126.129,19.5 C125.847979,19.7869673 125.619512,20.1210367 125.454,20.487 C125.281369,20.867484 125.194323,21.2812111 125.199,21.699 C125.192969,22.1343354 125.279905,22.565946 125.454,22.965 C125.617074,23.3367857 125.845717,23.6761938 126.129,23.967 C126.413444,24.2551274 126.753268,24.4826969 127.128,24.636 C127.915738,24.9560203 128.797262,24.9560203 129.585,24.636 C129.959732,24.4826969 130.299556,24.2551274 130.584,23.967 C130.867283,23.6761938 131.095926,23.3367857 131.259,22.965 C131.432545,22.5741225 131.520511,22.1506573 131.517,21.723 C131.515938,21.3093511 131.428042,20.9005332 131.259,20.523 C131.09767,20.144011 130.868972,19.7974071 130.584,19.5 C130.303922,19.2158239 129.969194,18.9913116 129.6,18.84 C128.812262,18.5199797 127.930738,18.5199797 127.143,18.84 Z M53.355,12.762 L51.6,12.762 L51.6,17.838 L53.355,17.838 C55.299,17.838 56.271,16.992 56.271,15.3 C56.271,13.608 55.299,12.762 53.355,12.762 Z"/>
  </g>
</svg>
