<svg xmlns="http://www.w3.org/2000/svg" width="20" height="14" viewBox="0 0 20 14">
  <path fill="#51ABAD" d="M16.3731785,1.01644173 L16.4513654,1.12756743 L19.7431298,6.31718871 C20.0065449,6.73247491 20.0280791,7.24883011 19.8086694,7.68036785 L19.7356191,7.80709876 L16.4438547,12.8841442 C16.0207308,13.5367482 15.1378843,13.7296389 14.4719618,13.3149776 C13.8452111,12.9247081 13.6339913,12.1353547 13.9640717,11.4997597 L14.0323358,11.3825225 L15.9289888,8.45447603 L1.42301308,8.3999894 C0.634040841,8.39698101 -0.0030589763,7.76774562 -2.33740906e-07,6.99455282 C0.00290002717,6.26684195 0.571830168,5.67097106 1.29652441,5.60589476 L1.43412977,5.6000106 L15.9579888,5.65447603 L14.0248251,2.6057659 C13.6328028,1.9877243 13.791813,1.18669819 14.3705188,0.754285024 L14.4839123,0.677661906 C15.114567,0.293480037 15.9319406,0.449310061 16.3731785,1.01644173 Z"/>
</svg>
