<svg xmlns="http://www.w3.org/2000/svg" width="24" height="24" viewBox="0 0 24 24">
  <g fill="none">
    <circle cx="12" cy="12" r="12" fill="#FF8C00"/>
    <path fill="#FFF" d="M12,3.37714286 C8.43428571,3.37714286 5.52,6.27428571 5.52,9.85714286 C5.52,10.5771429 5.64,11.28 5.86285714,11.9657143 C6.01714286,12.4285714 6.53142857,12.6857143 7.01142857,12.5314286 C7.47428571,12.3771429 7.73142857,11.8628571 7.57714286,11.3828571 C7.38857143,10.8514286 7.30285714,10.2857143 7.32,9.72 C7.38857143,7.30285714 9.34285714,5.31428571 11.76,5.19428571 C14.4514286,5.05714286 16.68,7.2 16.68,9.85714286 C16.68,12.3428571 14.7257143,14.3828571 12.2742857,14.52 C12.2742857,14.52 11.3657143,14.5714286 10.92,14.64 C10.6971429,14.6742857 10.5257143,14.7085714 10.4057143,14.7257143 C10.3542857,14.7428571 10.3028571,14.6914286 10.32,14.64 L10.4742857,13.8857143 L11.3142857,10.0114286 C11.4171429,9.53142857 11.1085714,9.05142857 10.6285714,8.94857143 C10.1485714,8.84571429 9.66857143,9.15428571 9.56571429,9.63428571 C9.56571429,9.63428571 7.54285714,19.0628571 7.52571429,19.1657143 C7.42285714,19.6457143 7.73142857,20.1257143 8.21142857,20.2285714 C8.69142857,20.3314286 9.17142857,20.0228571 9.27428571,19.5428571 C9.29142857,19.44 9.56571429,18.1885714 9.56571429,18.1885714 C9.77142857,17.2285714 10.56,16.5257143 11.4857143,16.4057143 C11.6914286,16.3714286 12.4971429,16.32 12.4971429,16.32 C15.84,16.0628571 18.48,13.2685714 18.48,9.85714286 C18.48,6.27428571 15.5657143,3.37714286 12,3.37714286 Z M12.4628571,18.2914286 C11.88,18.1714286 11.2971429,18.5314286 11.1771429,19.1314286 C11.0571429,19.7142857 11.4171429,20.2971429 12.0171429,20.4171429 C12.6,20.5371429 13.1828571,20.1771429 13.3028571,19.5771429 C13.4228571,18.9771429 13.0628571,18.4114286 12.4628571,18.2914286 Z"/>
  </g>
</svg>
