<svg xmlns="http://www.w3.org/2000/svg" width="32" height="32" viewBox="0 0 32 32">
  <defs>
    <linearGradient id="alaya-网络-a" x1="50%" x2="50%" y1="0%" y2="100%">
      <stop offset=".041%" stop-color="#FEAE08"/>
      <stop offset="100%" stop-color="#F7BB04"/>
    </linearGradient>
  </defs>
  <g fill="none" fill-rule="evenodd">
    <circle cx="16" cy="16" r="16" fill="url(#alaya-网络-a)"/>
    <g fill="#FFF" fill-rule="nonzero" transform="translate(9 7)">
      <polygon points="0 15.014 3.096 15.014 8.859 3.746 7.216 .72" transform="translate(0 2.25)"/>
      <path d="M0.268054058,8.36383785 L2.3138919,8.36383785 C2.94405405,8.36383785 3.52070272,8.00935132 3.8057838,7.44697298 L3.8057838,7.44697298 L4.12524323,6.81551355 L6.13313512,10.5141081 L9.726,10.5141081 L4.26697297,0.459729727 L0.268054058,8.36383785 Z" transform="translate(5.25 6.75)"/>
      <path d="M1.48508108,0.0878918917 C1.00183783,0.0878918917 0.610054057,0.479675676 0.610054057,0.96324324 L0.610054057,0.96324324 L0.610054057,1.8852973 L7.87329728,1.8852973 L7.87329728,0.96324324 C7.87329728,0.479675676 7.48151355,0.0878918917 6.99827025,0.0878918917 L6.99827025,0.0878918917 L1.48508108,0.0878918917 Z" transform="translate(3)"/>
    </g>
  </g>
</svg>
