<svg xmlns="http://www.w3.org/2000/svg" xmlns:xlink="http://www.w3.org/1999/xlink" width="56" height="56" viewBox="0 0 56 56">
  <defs>
    <polygon id="planton-account-a" points="0 0 48.98 0 48.98 55.993 0 55.993"/>
  </defs>
  <g fill="none" fill-rule="evenodd">
    <rect width="56" height="56"/>
    <g transform="translate(3.167)">
      <mask id="planton-account-b" fill="#fff">
        <use xlink:href="#planton-account-a"/>
      </mask>
      <path fill="#FFF" fill-rule="nonzero" d="M42.7114632,19.3664906 L42.7114632,38.8507443 L26.205557,48.5931115 L26.205557,55.9926999 L46.4153557,44.0646038 C47.9981073,43.1299897 48.9804565,41.3913962 48.9804565,39.5231286 L48.9804565,15.6664563 L42.7114632,19.3664906 Z M6.2687114,19.3664906 L0.000187919463,15.6664563 L0.000187919463,39.5231286 C0.000187919463,41.3913962 0.982067114,43.1299897 2.56481878,44.0646038 L22.7741476,55.9926999 L22.7741476,48.5931115 L6.2687114,38.8507443 L6.2687114,19.3664906 Z M24.490322,6.58638764 L40.9962282,16.3287547 L47.2642819,12.6287204 L27.0549531,0.700624356 C25.4722013,-0.233989709 23.5079731,-0.233989709 21.9252215,0.700624356 L1.71542282,12.6287204 L7.98441611,16.3287547 L24.490322,6.58638764 Z" mask="url(#planton-account-b)"/>
      <path fill="#FFF" fill-rule="nonzero" d="M20.296765,0.643471687 L13.490322,4.66096741 L6.68246979,0.643471687 L0.414416113,4.34302573 L10.9256913,10.547211 C12.508443,11.4808645 14.4726712,11.4808645 16.0549531,10.547211 L26.5657583,4.343506 L20.296765,0.643471687 Z" transform="translate(11 14)"/>
      <path fill="#FFF" fill-rule="nonzero" d="M0.205557,23.5439176 L6.47408057,19.8443637 L6.47408057,11.808892 L13.2809933,7.7913962 L13.2809933,0.391327627 L2.77018783,6.5950325 C1.18743627,7.5291664 0.205557,9.2677599 0.205557,11.1365077 L0.205557,23.5439176 Z" transform="translate(26 21)"/>
      <path fill="#FFF" fill-rule="nonzero" d="M0.699181217,7.7913962 L7.50609396,11.808892 L7.50609396,19.8443637 L13.7741476,23.5439176 L13.7741476,11.1365077 C13.7741476,9.2677599 12.7927383,7.5291664 11.2095168,6.5950325 L0.699181217,0.391327627 L0.699181217,7.7913962 Z" transform="translate(9 21)"/>
    </g>
  </g>
</svg>
