<svg xmlns="http://www.w3.org/2000/svg" xmlns:xlink="http://www.w3.org/1999/xlink" width="24" height="24" viewBox="0 0 24 24">
  <defs>
    <polygon id="platon-js-a" points="0 0 20.992 0 20.992 23.997 0 23.997"/>
    <polygon id="platon-js-c" points="0 0 20.992 0 20.992 23.997 0 23.997"/>
    <polygon id="platon-js-e" points="0 0 20.992 0 20.992 23.997 0 23.997"/>
    <polygon id="platon-js-g" points="0 0 20.992 0 20.992 23.997 0 23.997"/>
  </defs>
  <g fill="none" fill-rule="evenodd">
    <rect width="24" height="24"/>
    <g transform="translate(1.5)">
      <mask id="platon-js-b" fill="#fff">
        <use xlink:href="#platon-js-a"/>
      </mask>
      <path fill="#122039" fill-rule="nonzero" d="M18.3049128,8.29992453 L18.3049128,16.650319 L11.230953,20.8256192 L11.230953,23.9968714 L19.8922953,18.8848302 C20.5706174,18.4842813 20.9916242,17.7391698 20.9916242,16.9384837 L20.9916242,6.71419554 L18.3049128,8.29992453 Z M2.6865906,8.29992453 L8.05369128e-05,6.71419554 L8.05369128e-05,16.9384837 C8.05369128e-05,17.7391698 0.420885906,18.4842813 1.09920805,18.8848302 L9.76034899,23.9968714 L9.76034899,20.8256192 L2.6865906,16.650319 L2.6865906,8.29992453 Z M10.4958523,2.82273756 L17.5698121,6.99803774 L20.2561208,5.41230875 L11.5949799,0.300267581 C10.9166577,-0.100281304 10.0748456,-0.100281304 9.39652349,0.300267581 L0.735181208,5.41230875 L3.42189262,6.99803774 L10.4958523,2.82273756 Z" mask="url(#platon-js-b)"/>
      <mask id="platon-js-d" fill="#fff">
        <use xlink:href="#platon-js-c"/>
      </mask>
      <path fill="#FCB811" fill-rule="nonzero" d="M13.4128993,6.27577358 L10.4958523,7.99755746 L7.57820134,6.27577358 L4.89189262,7.86129674 L9.39672483,10.5202333 C10.075047,10.9203705 10.9168591,10.9203705 11.5949799,10.5202333 L16.0996107,7.86150257 L13.4128993,6.27577358 Z" mask="url(#platon-js-d)"/>
      <mask id="platon-js-f" fill="#fff">
        <use xlink:href="#platon-js-e"/>
      </mask>
      <path fill="#00BEDE" fill-rule="nonzero" d="M11.230953,19.0902504 L13.9174631,17.5047273 L13.9174631,14.0609537 L16.8347114,12.3391698 L16.8347114,9.16771184 L12.3300805,11.8264425 C11.6517584,12.2267856 11.230953,12.9718971 11.230953,13.772789 L11.230953,19.0902504 Z" mask="url(#platon-js-f)"/>
      <mask id="platon-js-h" fill="#fff">
        <use xlink:href="#platon-js-g"/>
      </mask>
      <path fill="#EC0A6E" fill-rule="nonzero" d="M4.15679195,12.3391698 L7.07404027,14.0609537 L7.07404027,17.5047273 L9.76034899,19.0902504 L9.76034899,13.772789 C9.76034899,12.9718971 9.33974497,12.2267856 8.66122148,11.8264425 L4.15679195,9.16771184 L4.15679195,12.3391698 Z" mask="url(#platon-js-h)"/>
    </g>
  </g>
</svg>
