<svg xmlns="http://www.w3.org/2000/svg" width="40" height="40" viewBox="0 0 40 40">
  <g fill="none" fill-rule="evenodd">
    <rect width="40" height="40" fill="#FFF"/>
    <g transform="translate(4 4)">
      <polygon fill="#E2E3E4" points="0 32 21.333 32 21.333 10.667 0 10.667"/>
      <path fill="#E8E9EA" d="M10.6666667,21.3333333 L32,21.3333333 L32,10.6666667 C32,4.77562934 27.2243707,0 21.3333333,0 L10.6666667,0 L10.6666667,21.3333333 Z"/>
      <polygon fill="#FFF" points="10.667 21.333 21.333 21.333 21.333 10.667 10.667 10.667"/>
      <polygon fill="#D9DBDD" points="0 10.667 10.667 10.667 10.667 0 0 0"/>
      <path fill="#D9DBDD" d="M21.3333333,32 L21.3333333,32 C27.2243707,32 32,27.2243707 32,21.3333333 L21.3333333,21.3333333 L21.3333333,32 Z"/>
      <polygon fill="#E7E9EA" points="13.328 18.661 18.661 18.672 18.672 13.339 13.339 13.328"/>
    </g>
  </g>
</svg>
