<svg xmlns="http://www.w3.org/2000/svg" width="126" height="24" viewBox="0 0 126 24">
  <g fill="none">
    <circle cx="12" cy="12" r="12" fill="#FF8C00"/>
    <path fill="#FFF" d="M12,3.37714286 C8.43428571,3.37714286 5.52,6.27428571 5.52,9.85714286 C5.52,10.5771429 5.64,11.28 5.86285714,11.9657143 C6.01714286,12.4285714 6.53142857,12.6857143 7.01142857,12.5314286 C7.47428571,12.3771429 7.73142857,11.8628571 7.57714286,11.3828571 C7.38857143,10.8514286 7.30285714,10.2857143 7.32,9.72 C7.38857143,7.30285714 9.34285714,5.31428571 11.76,5.19428571 C14.4514286,5.05714286 16.68,7.2 16.68,9.85714286 C16.68,12.3428571 14.7257143,14.3828571 12.2742857,14.52 C12.2742857,14.52 11.3657143,14.5714286 10.92,14.64 C10.6971429,14.6742857 10.5257143,14.7085714 10.4057143,14.7257143 C10.3542857,14.7428571 10.3028571,14.6914286 10.32,14.64 L10.4742857,13.8857143 L11.3142857,10.0114286 C11.4171429,9.53142857 11.1085714,9.05142857 10.6285714,8.94857143 C10.1485714,8.84571429 9.66857143,9.15428571 9.56571429,9.63428571 C9.56571429,9.63428571 7.54285714,19.0628571 7.52571429,19.1657143 C7.42285714,19.6457143 7.73142857,20.1257143 8.21142857,20.2285714 C8.69142857,20.3314286 9.17142857,20.0228571 9.27428571,19.5428571 C9.29142857,19.44 9.56571429,18.1885714 9.56571429,18.1885714 C9.77142857,17.2285714 10.56,16.5257143 11.4857143,16.4057143 C11.6914286,16.3714286 12.4971429,16.32 12.4971429,16.32 C15.84,16.0628571 18.48,13.2685714 18.48,9.85714286 C18.48,6.27428571 15.5657143,3.37714286 12,3.37714286 Z M12.4628571,18.2914286 C11.88,18.1714286 11.2971429,18.5314286 11.1771429,19.1314286 C11.0571429,19.7142857 11.4171429,20.2971429 12.0171429,20.4171429 C12.6,20.5371429 13.1828571,20.1771429 13.3028571,19.5771429 C13.4228571,18.9771429 13.0628571,18.4114286 12.4628571,18.2914286 Z"/>
    <path fill="#282828" d="M36.2146667,18 L36.2146667,13.328 L39.5586667,13.328 C42.1826667,13.328 43.5106667,12.192 43.5106667,9.936 C43.5106667,7.696 42.1986667,6.576 39.5746667,6.576 L34.9026667,6.576 L34.9026667,18 L36.2146667,18 Z M39.4946667,12.192 L36.2146667,12.192 L36.2146667,7.712 L39.4946667,7.712 C40.4066667,7.712 41.0786667,7.888 41.5266667,8.272 C41.9746667,8.608 42.1986667,9.168 42.1986667,9.936 C42.1986667,10.704 41.9746667,11.264 41.5426667,11.632 C41.0946667,12 40.4226667,12.192 39.4946667,12.192 Z M48.7106667,18.224 C49.9426667,18.224 50.9346667,17.792 51.6866667,16.928 C52.3746667,16.128 52.7266667,15.104 52.7266667,13.872 C52.7266667,12.624 52.3746667,11.6 51.6706667,10.784 C50.9346667,9.92 49.9426667,9.504 48.7106667,9.504 C47.4626667,9.504 46.4866667,9.92 45.7506667,10.784 C45.0466667,11.6 44.6946667,12.624 44.6946667,13.872 C44.6946667,15.104 45.0466667,16.128 45.7506667,16.928 C46.4866667,17.792 47.4626667,18.224 48.7106667,18.224 Z M48.7106667,17.152 C47.8306667,17.152 47.1426667,16.816 46.6626667,16.144 C46.2146667,15.536 46.0066667,14.784 46.0066667,13.872 C46.0066667,12.944 46.2146667,12.192 46.6626667,11.584 C47.1426667,10.912 47.8306667,10.576 48.7106667,10.576 C49.5746667,10.576 50.2626667,10.912 50.7746667,11.584 C51.2066667,12.192 51.4306667,12.944 51.4306667,13.872 C51.4306667,14.768 51.2066667,15.536 50.7746667,16.144 C50.2626667,16.816 49.5746667,17.152 48.7106667,17.152 Z M55.9106667,18 L55.9106667,6.352 L54.6466667,6.352 L54.6466667,18 L55.9106667,18 Z M59.4306667,18 L59.4306667,15.072 L60.7426667,13.888 L63.9746667,18 L65.6226667,18 L61.6226667,13.056 L65.2706667,9.728 L63.5746667,9.728 L59.4306667,13.568 L59.4306667,6.352 L58.1506667,6.352 L58.1506667,18 L59.4306667,18 Z M69.0466667,18.224 C69.8146667,18.224 70.5026667,18.048 71.1106667,17.712 C71.6226667,17.424 72.0546667,17.056 72.3746667,16.608 L72.3746667,18 L73.5746667,18 L73.5746667,12.688 C73.5746667,11.728 73.3186667,10.976 72.8386667,10.432 C72.2626667,9.808 71.3986667,9.504 70.2146667,9.504 C69.2226667,9.504 68.4386667,9.696 67.8306667,10.08 C67.1586667,10.496 66.7266667,11.152 66.5506667,12.016 L67.8146667,12.112 C67.9426667,11.584 68.2146667,11.184 68.6466667,10.928 C69.0306667,10.672 69.5266667,10.56 70.1346667,10.56 C71.5746667,10.56 72.2946667,11.248 72.2946667,12.64 L72.2946667,13.072 L70.3106667,13.104 C69.0626667,13.12 68.1026667,13.36 67.4306667,13.808 C66.6626667,14.288 66.2946667,14.992 66.2946667,15.936 C66.2946667,16.608 66.5506667,17.168 67.0626667,17.6 C67.5586667,18.016 68.2146667,18.224 69.0466667,18.224 Z M69.3186667,17.216 C68.8066667,17.216 68.3906667,17.088 68.0706667,16.848 C67.7506667,16.592 67.6066667,16.288 67.6066667,15.904 C67.6066667,14.704 68.5346667,14.096 70.3906667,14.064 L72.2946667,14.032 L72.2946667,14.736 C72.2946667,15.376 71.9906667,15.952 71.3986667,16.448 C70.7906667,16.96 70.1026667,17.216 69.3186667,17.216 Z M78.9986667,18.224 C80.2466667,18.224 81.1746667,17.696 81.7506667,16.64 L81.7506667,18 L82.9506667,18 L82.9506667,6.352 L81.6706667,6.352 L81.6706667,11.248 C81.0306667,10.08 80.1186667,9.504 78.9346667,9.504 C77.7506667,9.504 76.8386667,9.936 76.1666667,10.832 C75.5426667,11.632 75.2386667,12.624 75.2386667,13.84 C75.2386667,15.088 75.5426667,16.112 76.1666667,16.912 C76.8386667,17.776 77.7826667,18.224 78.9986667,18.224 Z M79.1586667,17.168 C78.2626667,17.168 77.5906667,16.832 77.1426667,16.192 C76.7426667,15.616 76.5506667,14.832 76.5506667,13.84 C76.5506667,12.848 76.7426667,12.08 77.1586667,11.52 C77.6066667,10.88 78.2946667,10.56 79.2066667,10.56 C79.9426667,10.56 80.5506667,10.848 81.0146667,11.456 C81.4626667,12.048 81.7026667,12.832 81.7026667,13.792 L81.7026667,13.952 C81.7026667,14.88 81.4946667,15.632 81.0946667,16.208 C80.6306667,16.848 79.9906667,17.168 79.1586667,17.168 Z M88.6306667,18.224 C89.8626667,18.224 90.8546667,17.792 91.6066667,16.928 C92.2946667,16.128 92.6466667,15.104 92.6466667,13.872 C92.6466667,12.624 92.2946667,11.6 91.5906667,10.784 C90.8546667,9.92 89.8626667,9.504 88.6306667,9.504 C87.3826667,9.504 86.4066667,9.92 85.6706667,10.784 C84.9666667,11.6 84.6146667,12.624 84.6146667,13.872 C84.6146667,15.104 84.9666667,16.128 85.6706667,16.928 C86.4066667,17.792 87.3826667,18.224 88.6306667,18.224 Z M88.6306667,17.152 C87.7506667,17.152 87.0626667,16.816 86.5826667,16.144 C86.1346667,15.536 85.9266667,14.784 85.9266667,13.872 C85.9266667,12.944 86.1346667,12.192 86.5826667,11.584 C87.0626667,10.912 87.7506667,10.576 88.6306667,10.576 C89.4946667,10.576 90.1826667,10.912 90.6946667,11.584 C91.1266667,12.192 91.3506667,12.944 91.3506667,13.872 C91.3506667,14.768 91.1266667,15.536 90.6946667,16.144 C90.1826667,16.816 89.4946667,17.152 88.6306667,17.152 Z M98.3586667,18 L98.3586667,16.928 L97.3026667,16.928 C97.0146667,16.928 96.8066667,16.848 96.6946667,16.72 C96.5666667,16.592 96.5186667,16.368 96.5186667,16.064 L96.5186667,10.8 L98.5666667,10.8 L98.5666667,9.728 L96.5186667,9.728 L96.5186667,7.056 L95.2546667,7.584 L95.2546667,9.728 L93.5906667,9.728 L93.5906667,10.8 L95.2546667,10.8 L95.2546667,16.064 C95.2546667,16.688 95.3826667,17.152 95.6546667,17.472 C95.9426667,17.824 96.4386667,18 97.1106667,18 L98.3586667,18 Z M103.990667,19.712 L103.990667,18.704 L103.094667,18.704 C102.390667,18.704 102.038667,18.304 102.038667,17.536 L102.038667,14.192 C102.038667,13.248 101.590667,12.592 100.726667,12.24 C101.590667,11.904 102.038667,11.248 102.038667,10.288 L102.038667,6.96 C102.038667,6.16 102.390667,5.776 103.094667,5.776 L103.990667,5.776 L103.990667,4.768 L102.886667,4.768 C102.230667,4.768 101.718667,4.976 101.366667,5.392 C101.014667,5.776 100.854667,6.32 100.854667,6.992 L100.854667,10.24 C100.854667,10.72 100.742667,11.072 100.550667,11.296 C100.326667,11.552 99.9106667,11.68 99.3346667,11.712 L99.3346667,12.768 C99.9106667,12.784 100.326667,12.928 100.550667,13.184 C100.742667,13.408 100.854667,13.76 100.854667,14.24 L100.854667,17.504 C100.854667,18.176 101.014667,18.704 101.366667,19.088 C101.718667,19.504 102.230667,19.712 102.886667,19.712 L103.990667,19.712 Z M106.438667,18.064 C106.694667,18.064 106.934667,17.968 107.126667,17.776 C107.318667,17.584 107.414667,17.36 107.414667,17.088 C107.414667,16.8 107.318667,16.576 107.126667,16.384 C106.934667,16.192 106.694667,16.096 106.438667,16.096 C106.150667,16.096 105.926667,16.192 105.750667,16.384 C105.558667,16.576 105.462667,16.8 105.462667,17.088 C105.462667,17.36 105.558667,17.584 105.750667,17.776 C105.926667,17.968 106.150667,18.064 106.438667,18.064 Z M110.758667,8.512 C111.030667,8.512 111.270667,8.416 111.462667,8.24 C111.638667,8.048 111.734667,7.824 111.734667,7.552 C111.734667,7.264 111.638667,7.04 111.462667,6.88 C111.270667,6.688 111.030667,6.608 110.758667,6.608 C110.486667,6.608 110.262667,6.688 110.070667,6.88 C109.878667,7.04 109.798667,7.264 109.798667,7.552 C109.798667,7.824 109.878667,8.048 110.070667,8.24 C110.262667,8.416 110.486667,8.512 110.758667,8.512 Z M109.078667,21.168 C110.614667,21.168 111.398667,20.432 111.398667,18.96 L111.398667,9.728 L110.118667,9.728 L110.118667,18.912 C110.118667,19.696 109.734667,20.096 108.982667,20.096 L108.310667,20.096 L108.310667,21.168 L109.078667,21.168 Z M116.886667,18.224 C119.222667,18.224 120.390667,17.36 120.390667,15.664 C120.390667,14.944 120.054667,14.384 119.398667,13.968 C118.966667,13.696 118.262667,13.44 117.270667,13.2 C116.438667,12.976 115.862667,12.8 115.558667,12.656 C115.078667,12.416 114.854667,12.112 114.854667,11.76 C114.854667,11.392 115.030667,11.104 115.382667,10.896 C115.702667,10.672 116.150667,10.576 116.726667,10.576 C117.382667,10.576 117.894667,10.704 118.246667,10.96 C118.566667,11.184 118.774667,11.568 118.886667,12.08 L120.134667,12.08 C119.910667,10.352 118.790667,9.504 116.742667,9.504 C115.814667,9.504 115.046667,9.712 114.470667,10.128 C113.846667,10.544 113.542667,11.088 113.542667,11.792 C113.542667,12.496 113.846667,13.024 114.486667,13.408 C114.870667,13.664 115.558667,13.904 116.534667,14.144 C117.430667,14.368 118.022667,14.544 118.294667,14.672 C118.806667,14.928 119.078667,15.28 119.078667,15.744 C119.078667,16.672 118.326667,17.152 116.854667,17.152 C116.150667,17.152 115.622667,17.024 115.270667,16.768 C114.918667,16.48 114.678667,16.016 114.582667,15.36 L113.334667,15.36 C113.526667,17.264 114.710667,18.224 116.886667,18.224 Z M122.342667,19.712 C122.982667,19.712 123.494667,19.504 123.862667,19.088 C124.198667,18.704 124.374667,18.176 124.374667,17.504 L124.374667,14.24 C124.374667,13.76 124.470667,13.408 124.678667,13.184 C124.902667,12.928 125.302667,12.784 125.894667,12.768 L125.894667,11.712 C125.302667,11.68 124.902667,11.552 124.678667,11.312 C124.470667,11.072 124.374667,10.72 124.374667,10.24 L124.374667,6.992 C124.374667,6.32 124.198667,5.776 123.862667,5.392 C123.494667,4.976 122.982667,4.768 122.342667,4.768 L121.238667,4.768 L121.238667,5.776 L122.134667,5.776 C122.838667,5.776 123.190667,6.16 123.190667,6.96 L123.190667,10.288 C123.190667,11.248 123.622667,11.904 124.502667,12.24 C123.622667,12.592 123.190667,13.248 123.190667,14.192 L123.190667,17.536 C123.190667,18.304 122.838667,18.704 122.134667,18.704 L121.238667,18.704 L121.238667,19.712 L122.342667,19.712 Z"/>
  </g>
</svg>
