<svg xmlns="http://www.w3.org/2000/svg" width="56" height="56" viewBox="0 0 56 56">
  <g fill="none" fill-rule="evenodd">
    <circle cx="28" cy="28" r="26" stroke="#FFF" stroke-width="4"/>
    <g fill="#FFF" fill-rule="nonzero" transform="translate(14.875 10.5)">
      <path d="M13.8267327,0.25470297 C6.25841584,0.25470297 0.0727722772,6.4039604 0.0727722772,14.0086634 C0.0727722772,15.5368812 0.327475248,17.0287129 0.80049505,18.4841584 C1.1279703,19.4665842 2.21955446,20.0123762 3.23836634,19.684901 C4.22079208,19.3574257 4.76658416,18.2658416 4.43910891,17.2470297 C4.03886139,16.1190594 3.85693069,14.9183168 3.89331683,13.7175743 C4.03886139,8.58712871 8.18688119,4.36633663 13.3173267,4.11163366 C19.0299505,3.82054455 23.7601485,8.36881188 23.7601485,14.0086634 C23.7601485,19.2846535 19.6121287,23.614604 14.4089109,23.9056931 C14.4089109,23.9056931 12.4804455,24.0148515 11.5344059,24.160396 C11.0613861,24.2331683 10.6975248,24.3059406 10.4428218,24.3423267 C10.3336634,24.3787129 10.224505,24.2695545 10.2608911,24.160396 L10.5883663,22.5594059 L12.3712871,14.3361386 C12.589604,13.3173267 11.9346535,12.2985149 10.9158416,12.080198 C9.8970297,11.8618812 8.87821782,12.5168317 8.65990099,13.5356436 C8.65990099,13.5356436 4.36633663,33.5480198 4.3299505,33.7663366 C4.11163366,34.7851485 4.76658416,35.8039604 5.78539604,36.0222772 C6.80420792,36.2405941 7.8230198,35.5856436 8.04133663,34.5668317 C8.07772277,34.3485149 8.65990099,31.6923267 8.65990099,31.6923267 C9.09653465,29.654703 10.770297,28.1628713 12.7351485,27.9081683 C13.1717822,27.835396 14.8819307,27.7262376 14.8819307,27.7262376 C21.9772277,27.1804455 27.5806931,21.249505 27.5806931,14.0086634 C27.5806931,6.4039604 21.3950495,0.25470297 13.8267327,0.25470297 Z"/>
      <path d="M14.8091584,31.9106436 C13.5720297,31.6559406 12.334901,32.4200495 12.080198,33.6935644 C11.825495,34.9306931 12.589604,36.1678218 13.8631188,36.4225248 C15.1002475,36.6772277 16.3373762,35.9131188 16.5920792,34.639604 C16.8467822,33.3660891 16.0826733,32.1653465 14.8091584,31.9106436 Z"/>
    </g>
  </g>
</svg>
