<svg xmlns="http://www.w3.org/2000/svg" width="16" height="16" viewBox="0 0 16 16">
  <path fill="#FFF" fill-rule="evenodd" d="M822,121 C823.656854,121 825,122.343146 825,124 L825,134 C825,135.656854 823.656854,137 822,137 L812,137 C810.343146,137 809,135.656854 809,134 L809,124 C809,122.343146 810.343146,121 812,121 L822,121 Z M821.727369,127.100088 C821.275499,126.437347 820.420768,126.303032 819.818275,126.800088 L819.818275,126.800088 L817.000088,129.125088 L814.181902,126.800088 L814.073095,126.718906 C813.480246,126.320662 812.698097,126.476331 812.272808,127.100088 C811.820938,127.76283 811.943042,128.703032 812.545536,129.200088 L812.545536,129.200088 L816.181905,132.200088 L816.296856,132.285295 C816.768243,132.597721 817.370718,132.569319 817.818272,132.200088 L817.818272,132.200088 L821.454641,129.200088 L821.555958,129.107919 C822.069514,128.59338 822.152659,127.723845 821.727369,127.100088 Z" transform="translate(-809 -121)"/>
</svg>
