<svg xmlns="http://www.w3.org/2000/svg" width="40" height="40" viewBox="0 0 40 40">
  <g fill="none" fill-rule="evenodd">
    <rect width="40" height="40"/>
    <path fill="#E8E9EA" fill-rule="nonzero" d="M33.3333333,10 L20,10 L16.6666667,6.66666667 L6.66666667,6.66666667 C4.83333333,6.66666667 3.35,8.16666667 3.35,10 L3.33333333,30 C3.33333333,31.8333333 4.83333333,33.3333333 6.66666667,33.3333333 L33.3333333,33.3333333 C35.1666667,33.3333333 36.6666667,31.8333333 36.6666667,30 L36.6666667,13.3333333 C36.6666667,11.5 35.1666667,10 33.3333333,10 Z M23.3333333,26.6666667 L10,26.6666667 L10,23.3333333 L23.3333333,23.3333333 L23.3333333,26.6666667 Z M30,20 L10,20 L10,16.6666667 L30,16.6666667 L30,20 Z"/>
  </g>
</svg>
