<svg xmlns="http://www.w3.org/2000/svg" width="32" height="32" viewBox="0 0 32 32">
  <defs>
    <linearGradient id="platon-网络-a" x1="50%" x2="50%" y1="0%" y2="100%">
      <stop offset="0%" stop-color="#438D8E"/>
      <stop offset="100%" stop-color="#55B4B6"/>
    </linearGradient>
  </defs>
  <g fill="none" fill-rule="evenodd">
    <circle cx="16" cy="16" r="16" fill="url(#platon-网络-a)"/>
    <g fill-rule="nonzero" transform="translate(6.4 6.4)">
      <polygon fill="#F9BE00" points="7.156 11.974 11.862 11.974 11.862 7.225 7.156 7.225"/>
      <path fill="#FFF" d="M4.89755309 16.5657332L14.4098927 16.5657332C15.511477 16.5657332 16.407645 15.6614534 16.407645 14.5497332L16.407645 4.94986742 14.2181798 4.94986742 14.2181798 14.356122 4.89755309 14.356122 4.89755309 16.5657332zM14.120035 4.84377062L14.120035 2.63402518 4.60769541 2.63402518C3.5062442 2.63402518 2.60994311 3.53843916 2.60994311 4.65015944L2.60994311 14.2498909 4.79940831 14.2498909 4.79940831 4.84377062 14.120035 4.84377062z"/>
      <polygon fill="#08B8DE" points="16.408 2.634 19.018 2.634 19.018 0 16.408 0"/>
      <polygon fill="#E40065" points="0 19.2 2.61 19.2 2.61 16.566 0 16.566"/>
    </g>
  </g>
</svg>
