<?xml version="1.0" encoding="UTF-8"?>
<svg width="24px" height="24px" viewBox="0 0 24 24" version="1.1" xmlns="http://www.w3.org/2000/svg" xmlns:xlink="http://www.w3.org/1999/xlink">
    <title>icon_bsc_small</title>
    <defs>
        <polygon id="path-1" points="8.05369128e-05 -1.42108547e-14 20.9915436 -1.42108547e-14 20.9915436 23.9968714 8.05369128e-05 23.9968714"></polygon>
    </defs>
    <g id="BscDot" stroke="none" stroke-width="1" fill="none" fill-rule="evenodd">
        <g id="001" transform="translate(-640.000000, -496.000000)">
            <g id="编组-10" transform="translate(316.000000, 480.000000)">
                <g id="icon_bsc_small" transform="translate(324.000000, 16.000000)">
                    <rect id="矩形" x="0" y="0" width="24" height="24"></rect>
                    <g id="Fill-1-Clipped" transform="translate(1.500000, 0.000000)">
                        <mask id="mask-2" fill="white">
                            <use xlink:href="#path-1"></use>
                        </mask>
                        <g id="path-1"></g>
                        <path d="M18.3049128,8.29992453 L18.3049128,16.650319 L11.230953,20.8256192 L11.230953,23.9968714 L19.8922953,18.8848302 C20.5706174,18.4842813 20.9916242,17.7391698 20.9916242,16.9384837 L20.9916242,6.71419554 L18.3049128,8.29992453 Z M2.6865906,8.29992453 L8.05369128e-05,6.71419554 L8.05369128e-05,16.9384837 C8.05369128e-05,17.7391698 0.420885906,18.4842813 1.09920805,18.8848302 L9.76034899,23.9968714 L9.76034899,20.8256192 L2.6865906,16.650319 L2.6865906,8.29992453 Z M10.4958523,2.82273756 L17.5698121,6.99803774 L20.2561208,5.41230875 L11.5949799,0.300267581 C10.9166577,-0.100281304 10.0748456,-0.100281304 9.39652349,0.300267581 L0.735181208,5.41230875 L3.42189262,6.99803774 L10.4958523,2.82273756 Z" id="Fill-1" fill="#122039" fill-rule="nonzero" mask="url(#mask-2)"></path>
                        <text id="B" mask="url(#mask-2)" font-family="WorkSans-Regular_Bold, Work Sans" font-size="14" font-weight="bold" fill="#F3BA2F">
                            <tspan x="6" y="17">B</tspan>
                        </text>
                    </g>
                </g>
            </g>
        </g>
    </g>
</svg>